<svg id="Calque_1" data-name="Calque 1" xmlns="http://www.w3.org/2000/svg" xmlns:xlink="http://www.w3.org/1999/xlink" viewBox="0 0 1920 1208.81"><defs><style>.cls-1,.cls-7{fill:#ed6b46;}.cls-2{fill:#323c44;opacity:0.1;}.cls-3{fill:#637279;}.cls-11,.cls-4{fill:#fff;}.cls-5{fill:#2f2f35;}.cls-6{fill:#ffe600;}.cls-10,.cls-11,.cls-7{opacity:0.5;}.cls-8{fill:#5f2d7f;}.cls-9{fill:#4fb6b5;}</style><image id="image" width="2753" height="3440" xlink:href="../Communication/E%CC%81lements%20graphiques/Vagues/blanc.png"/><image id="image-2" width="3156" height="1504" xlink:href="../Communication/E-Cairn/Logo%20e-Cairn%20orange.png"/></defs><title>Fond login</title><rect class="cls-1" y="-31.52" width="1920" height="1240.33"/><path class="cls-2" d="M548.06,425.24h129a15.49,15.49,0,0,1,15.49,15.49V688.5A15.49,15.49,0,0,1,677.1,704h-129a15.48,15.48,0,0,1-15.48-15.48V440.73a15.48,15.48,0,0,1,15.48-15.48Z" transform="translate(-63.11 77.29) rotate(-6.87)"/><path class="cls-3" d="M541.47,421.92H670.52A15.48,15.48,0,0,1,686,437.4V685.17a15.49,15.49,0,0,1-15.49,15.49h-129A15.48,15.48,0,0,1,526,685.17V437.4a15.48,15.48,0,0,1,15.48-15.48Z" transform="translate(-62.76 76.48) rotate(-6.87)"/><path class="cls-4" d="M551.92,672.36l-26.71-221.8c0-.22,133.27-16.32,133.3-16.05l26.71,221.8C685.23,656.53,552,672.62,551.92,672.36Z"/><path class="cls-5" d="M625.39,680.74a9,9,0,1,1-10-7.88A9,9,0,0,1,625.39,680.74Z"/><rect class="cls-6" x="533.64" y="505.8" width="134.46" height="23.14" transform="translate(-57.55 75.55) rotate(-6.87)"/><rect class="cls-1" x="537.44" y="535.65" width="133.98" height="24.86" transform="translate(-61.19 76.2) rotate(-6.87)"/><rect class="cls-7" x="660.06" y="538.6" width="5.7" height="5.21" transform="translate(-59.95 83.14) rotate(-6.87)"/><rect class="cls-7" x="650.94" y="540.09" width="5.7" height="5.2" transform="translate(-60.19 82.06) rotate(-6.87)"/><rect class="cls-8" x="548.23" y="577.05" width="56.48" height="44.23" transform="translate(-67.5 73.22) rotate(-6.87)"/><rect class="cls-9" x="552.14" y="628.37" width="42.4" height="7.37" transform="translate(-71.46 73.08) rotate(-6.87)"/><rect class="cls-9" x="553.2" y="638.77" width="49.89" height="3.79" transform="translate(-72.45 73.72) rotate(-6.87)"/><rect class="cls-9" x="554.26" y="648.12" width="30.66" height="3.83" transform="translate(-73.63 72.76) rotate(-6.87)"/><rect class="cls-9" x="587.24" y="645.16" width="13.74" height="3.83" transform="translate(-73.1 75.67) rotate(-6.87)"/><rect class="cls-6" x="612.12" y="570.59" width="56.48" height="44.23" transform="translate(-66.27 80.81) rotate(-6.87)"/><rect class="cls-9" x="616.03" y="621.92" width="42.4" height="7.37" transform="translate(-70.23 80.68) rotate(-6.87)"/><rect class="cls-9" x="617.09" y="632.32" width="49.89" height="3.79" transform="translate(-71.22 81.31) rotate(-6.87)"/><rect class="cls-9" x="618.15" y="641.66" width="30.67" height="3.83" transform="translate(-72.4 80.36) rotate(-6.87)"/><rect class="cls-9" x="651.13" y="638.71" width="13.74" height="3.83" transform="translate(-71.87 83.27) rotate(-6.87)"/><use transform="translate(527.45 447.16) rotate(-6.87) scale(0.04)" xlink:href="#image-2"/><use transform="matrix(0, 0.06, -0.06, 0, 2045.79, 168.82)" xlink:href="#image"/><image width="1703" height="2667" transform="translate(-29.96 192.13) scale(0.07)" xlink:href="../Communication/E%CC%81lements%20graphiques/Vagues/jaune.png"/><image width="2961" height="1232" transform="translate(1399.33 603.51) rotate(23.88) scale(0.07)" xlink:href="../Communication/E%CC%81lements%20graphiques/Vague%20jaune.png"/><g class="cls-10"><path class="cls-4" d="M1619.15,1071.14l-11.23-.67a14.11,14.11,0,0,1-13.25-14.91l3.39-57.33A14.13,14.13,0,0,1,1613,985l11.23.67a14.13,14.13,0,0,1,13.25,14.91l-3.39,57.33a14.11,14.11,0,0,1-14.07,13.27Zm-16.71-72.65-3.4,57.33a9.73,9.73,0,0,0,9.14,10.28l11.23.67a9.74,9.74,0,0,0,10.28-9.14l3.4-57.33A9.74,9.74,0,0,0,1624,990l-11.23-.67h-.59A9.72,9.72,0,0,0,1602.44,998.49Z"/><path class="cls-4" d="M1579.93,1062.85l-51-3a10.75,10.75,0,0,1-7.88-17.31,12.14,12.14,0,0,1-3.42-19,12.94,12.94,0,0,1-4.26-19.23,13,13,0,0,1,7.06-24.29l29.48,1.74,1.34-22.68a13.21,13.21,0,0,1,26.38,1.56l-.8,13.54a9.89,9.89,0,0,0,9.28,9.79,2,2,0,0,1,.35,0,18.22,18.22,0,0,1,15.7,19l-2.54,42.88a18.36,18.36,0,0,1-18.55,17h0Zm-7.47-88.76.81-13.69a8.83,8.83,0,1,0-17.63-1l-1.48,24.86a2.18,2.18,0,0,1-2.31,2.06l-31.67-1.87a8.59,8.59,0,0,0-2.4,17,2.19,2.19,0,0,1,.83,3.89,8.52,8.52,0,0,0-3.44,6.37,8.63,8.63,0,0,0,7.34,9,2.19,2.19,0,0,1,1.85,1.82,2.21,2.21,0,0,1-1.18,2.31,7.77,7.77,0,0,0,2.5,14.68,2.18,2.18,0,0,1,.8,4.08,6.37,6.37,0,0,0,2.71,11.94l51,3c7.93.43,14.63-5.35,15.07-12.86l2.54-42.87a13.88,13.88,0,0,0-12.11-14.4A14.29,14.29,0,0,1,1572.46,974.09Z"/><path class="cls-4" d="M1616.75,1016.45a8.36,8.36,0,1,1,1-16.7,8.36,8.36,0,0,1,7.86,8.84,8.38,8.38,0,0,1-8.35,7.87Zm-3.48-8.59a4,4,0,0,0,3.74,4.22h.24a4,4,0,0,0,3-6.64,3.93,3.93,0,0,0-2.75-1.33h-.24A4,4,0,0,0,1613.27,1007.86Z"/></g><path class="cls-11" d="M1865.84,730.07c-2.38-7-7.85-12.57-16.26-16.5-5.44-2.55-10.91-4.7-15.74-6.6-9.86-3.88-19.17-7.54-20.62-11.92-.21-.65-.86-2.62,1.9-7,2.42-3.87,4.68-6.92,6.67-9.61,6.79-9.17,11.28-15.23,10.47-36.43-.89-23.25-20.52-30.7-30.79-31.38,0,0-.47,0-1.31,0-4.79,0-28.91,1.3-33.37,27-3.62,20.9,0,27.51,5.53,37.5,1.61,2.93,3.44,6.25,5.34,10.41,2.15,4.72,1.24,6.59.94,7.2-2,4.16-11.73,6.55-22,9.08-3.66.9-7.69,1.9-11.82,3.06a3.83,3.83,0,0,0-.85-.63l-2-.9c-1.27-.58-2.78-1.26-3.54-1.73a17.57,17.57,0,0,1,1.63-3c1.78-2.84,3.44-5.08,4.91-7.06,5.15-7,8.55-11.56,7.94-27.6-.69-17.93-15.82-23.66-23.73-24.2s-23.66,3.15-26.72,20.83c-2.75,15.82,0,20.83,4.2,28.42,1.19,2.15,2.53,4.59,3.92,7.63.63,1.4,1.27,3.32.7,4.5-1.28,2.66-8.59,4.45-15.65,6.18-3.74.92-8,2-12.25,3.3-6.83,2.15-11.59,5.85-14.15,11-3.88,7.81-1,16-.9,16.3a3.82,3.82,0,0,0,3.34,2.52l52.38,3.51,136.55,9.12h.26a3.81,3.81,0,0,0,3.39-2.07C1864.41,750.58,1869.44,740.68,1865.84,730.07Zm-189.79-5.13c1.61-3.2,4.83-5.57,9.56-7.05,4-1.27,8-2.24,11.78-3.18,10-2.45,17.86-4.38,20.72-10.28,1.5-3.09,1.28-6.79-.63-11-1.51-3.32-2.93-5.9-4.18-8.17-3.76-6.82-5.65-10.24-3.36-23.42,2.6-15,17-14.59,18.68-14.49.65,0,16,1.25,16.58,16.85.51,13.36-1.81,16.5-6.44,22.76-1.55,2.09-3.3,4.45-5.23,7.54-2.24,3.56-3.55,6.52-2.67,9.43a7.77,7.77,0,0,0,4,4.39c-6,2.85-10.43,6.89-13,12.11a27.35,27.35,0,0,0-2.35,15.51L1675,733A13.77,13.77,0,0,1,1676.05,724.94Zm182.23,20.29-131-8.75c-.54-2.87-1-7.94,1.38-12.64s6.95-8.16,13.74-10.29c5.51-1.73,10.85-3,16-4.31,13.12-3.23,23.5-5.78,27.08-13.17,1.86-3.85,1.58-8.33-.87-13.71-2-4.42-3.92-7.88-5.6-10.93-5.23-9.48-7.85-14.25-4.69-32.5,3.33-19.2,20.61-20.69,25.83-20.69h.79c.93.07,22.82,1.92,23.66,24,.71,18.51-2.52,22.88-9,31.59-2.07,2.8-4.42,6-7,10.09-3.13,5-4,9.4-2.68,13.47,2.57,7.8,12.51,11.7,25.09,16.65,5,1.95,10.07,4,15.3,6.4,6.42,3,10.53,7,12.23,12A20.34,20.34,0,0,1,1858.28,745.23Z"/><g class="cls-10"><path class="cls-4" d="M1387.06,105.1a31.8,31.8,0,0,0-21.94-10.86l-164.06-11a32.06,32.06,0,0,0-34,29.78l-3.7,55.43a32,32,0,0,0,29.78,34.05l61.32,4.09,15.15,39.23a4.36,4.36,0,0,0,3.79,2.77h.26a4.36,4.36,0,0,0,3.83-2.31L1297,209.47l60.2,4c.72,0,1.44.07,2.15.07h0a32.06,32.06,0,0,0,31.89-29.85l3.7-55.43A31.8,31.8,0,0,0,1387.06,105.1Zm-4.52,78a23.34,23.34,0,0,1-24.81,21.71l-63-4.21a4.38,4.38,0,0,0-4.12,2.3l-16.37,30.93-12.72-32.93a4.34,4.34,0,0,0-3.76-2.77l-64.08-4.28A23.35,23.35,0,0,1,1172,169.05l3.7-55.42a23.37,23.37,0,0,1,23.24-21.76c.53,0,1,0,1.59.06l164,11a23.32,23.32,0,0,1,21.71,24.82Z"/><path class="cls-4" d="M1246.57,136.56a13,13,0,0,0-13.69,12,12.87,12.87,0,0,0,12,13.7l.87,0a12.87,12.87,0,0,0,.84-25.71Zm-.84,17h-.3a4.19,4.19,0,0,1-3.9-4.47,4.25,4.25,0,0,1,4.44-3.91h0a4.2,4.2,0,0,1-.26,8.39Z"/><path class="cls-4" d="M1279.74,138.78a12.92,12.92,0,0,0-13.68,12,12.85,12.85,0,0,0,12,13.7q.43,0,.87,0a12.87,12.87,0,0,0,.84-25.71Zm-.84,17h-.29a4.14,4.14,0,0,1-2.88-1.42,4.22,4.22,0,0,1-1-3.06,4.26,4.26,0,0,1,4.44-3.91h0a4.2,4.2,0,0,1-.26,8.4Z"/><path class="cls-4" d="M1312.91,141a12.87,12.87,0,0,0-1.72,25.69l.87,0a12.87,12.87,0,0,0,.85-25.72Zm-.85,17h-.29a4.21,4.21,0,0,1-3.91-4.47,4.27,4.27,0,0,1,4.45-3.92h0a4.2,4.2,0,0,1-.27,8.4Z"/></g><g class="cls-10"><path class="cls-4" d="M1027.58,1108.33a2.19,2.19,0,0,1-1.69-1.6l-7-28.14-32.29-6.25A20.94,20.94,0,0,1,970,1047.83l4.14-21.38a2.17,2.17,0,1,1,4.26.82l-4.14,21.38a16.6,16.6,0,0,0,13.13,19.43l33.64,6.51a2.16,2.16,0,0,1,1.69,1.61l6.19,24.86,14.59-20.81a2.16,2.16,0,0,1,2.19-.89l32.92,6.37a16.59,16.59,0,0,0,19.42-13.13l7.16-37a16.59,16.59,0,0,0-13.12-19.42l-14.56-2.82a2.17,2.17,0,1,1,.82-4.26l14.56,2.82a20.94,20.94,0,0,1,16.56,24.51l-7.15,37a20.94,20.94,0,0,1-24.51,16.56l-31.54-6.1-16.52,23.55a2.14,2.14,0,0,1-2.17.89Z"/><path class="cls-4" d="M1002.33,1062.16a2.18,2.18,0,0,1-1.7-1.6l-7-28.14-32.29-6.25a20.94,20.94,0,0,1-16.56-24.51l7.16-37a20.94,20.94,0,0,1,24.51-16.56l91.22,17.65a20.94,20.94,0,0,1,16.56,24.51l-7.16,37a20.94,20.94,0,0,1-24.51,16.56l-31.53-6.11-16.52,23.56a2.16,2.16,0,0,1-2.17.89ZM975.62,952.39a16.59,16.59,0,0,0-19.42,13.12l-7.16,37a16.61,16.61,0,0,0,13.13,19.43l33.64,6.51a2.15,2.15,0,0,1,1.69,1.6l6.19,24.86,14.59-20.81a2.17,2.17,0,0,1,2.19-.88l32.92,6.37a16.59,16.59,0,0,0,19.42-13.13l7.16-37A16.6,16.6,0,0,0,1066.84,970Z"/></g><g class="cls-10"><path class="cls-4" d="M296.71,602.6a3.08,3.08,0,0,1-1.61-.45c-1.55-.93-38-23-44-49.94-3-13.26.4-21,3.75-25.21A19,19,0,0,1,270,520c9.71,0,19.45,5.91,26.73,16,7.28-10.11,17-16,26.73-16a19,19,0,0,1,15.16,7c4.73,5.92,6.07,14.87,3.75,25.21-6,26.92-42.47,49-44,49.94A3.15,3.15,0,0,1,296.71,602.6ZM270,526.26a12.65,12.65,0,0,0-10.25,4.67c-3.52,4.39-4.42,11.46-2.53,19.91,4.76,21.28,32.49,40.36,39.51,44.9,7-4.54,34.75-23.62,39.51-44.9,1.89-8.45,1-15.52-2.53-19.91a12.63,12.63,0,0,0-10.25-4.67c-6.74,0-16.59,4.48-24,17.07a3.14,3.14,0,0,1-5.41,0C286.57,530.75,276.72,526.26,270,526.26Z"/></g><path class="cls-11" d="M147.33,638.61a61.82,61.82,0,0,0-7.33-.07A62.63,62.63,0,0,0,98.15,744.8a3.08,3.08,0,0,0,.24.27l.4.41a42.39,42.39,0,0,1,11.52,24.28A10,10,0,0,0,106.74,787a9.95,9.95,0,0,0,1.69,15.37,9.94,9.94,0,0,0,4.88,15.71,10,10,0,0,0,8.07,14.85,11.2,11.2,0,0,0,1.16,0h0A29.87,29.87,0,0,0,146.46,848a27.39,27.39,0,0,0,3.39,0,29.55,29.55,0,0,0,25.73-17.63.06.06,0,0,0,0,0l.63,0A10,10,0,0,0,184,814.63a9.93,9.93,0,0,0,3.33-16.11,10.09,10.09,0,0,0,1.19-1.08,10,10,0,0,0-1-14.39,3.15,3.15,0,0,0,.28-.25,10,10,0,0,0-5.51-16.55A42.45,42.45,0,0,1,191.38,741l.35-.43a3,3,0,0,0,.23-.3,62.65,62.65,0,0,0-44.63-101.63Zm-5.92,83.82a69.18,69.18,0,0,0,7-.72c0,15.75,3.82,36.43,5.68,45.6l-11.76.58C143.32,755.75,144.19,736.56,141.41,722.43Zm-7.1-5.49c-3.88-.32-7-1.1-8.54-2.32-.77-.63-.74-1-.63-1.51.4-1.65,1.83-3.26,3.48-3.15l.23,0C130.52,710.27,132.58,712.26,134.31,716.94ZM149.6,842.62a24.42,24.42,0,0,1-20.85-10l40.6-2A24.13,24.13,0,0,1,149.6,842.62Zm30.76-22.55a4.64,4.64,0,0,1-1.2,3.33,4.52,4.52,0,0,1-3.2,1.51l-53.68,2.61a4.63,4.63,0,0,1-.45-9.24l7.08-.34,46.6-2.27a5,5,0,0,1,.55,0A4.62,4.62,0,0,1,180.36,820.07Zm4.35-14.88a4.68,4.68,0,0,1-1.19,3.34,4.63,4.63,0,0,1-3.21,1.5l-51.66,2.52-7.08.34h0l-5.06.25a4.64,4.64,0,0,1-3.66-7.73,4.7,4.7,0,0,1,3.21-1.51l63.81-3.1h.54A4.62,4.62,0,0,1,184.71,805.19Zm1-14.71a4.63,4.63,0,0,1-4.4,4.84l-67.18,3.27a4.63,4.63,0,1,1-.45-9.24l67.18-3.27a3.25,3.25,0,0,1,.54,0A4.62,4.62,0,0,1,185.69,790.48ZM185,775.85a4.61,4.61,0,0,1-4.39,4.84L113.4,784a4.63,4.63,0,0,1-.45-9.24l.4,0h0l66.35-3.23h0l.41,0a3.25,3.25,0,0,1,.54,0A4.61,4.61,0,0,1,185,775.85Zm15.25-77.52a57.15,57.15,0,0,1-12.63,38.72l-.12.17-.22.27-.14.17a47.83,47.83,0,0,0-10.27,28.54l-17.28.85c-4.38-21.14-5.81-36.49-5.69-46.42a42.78,42.78,0,0,0,8.81-3.06c7-3.49,7.5-8.36,7.38-10.3a8.76,8.76,0,0,0-6-7.64c-4-1.38-8.45.06-11.81,3.86-2.16,2.44-3.25,7-3.64,12.74a63.65,63.65,0,0,1-8.48.82c-2.06-6.77-5.32-11.54-10.34-12.38-4.86-.82-8.83,3-9.85,7.16a6.58,6.58,0,0,0,2.5,7c2.81,2.25,7.79,3.4,13.5,3.63,2,8.89,2.87,23.37,1,45.69l-21.16,1a48,48,0,0,0-13.07-27.5l-.17-.17-.16-.16-.14-.15a57.24,57.24,0,0,1,38.09-97.27,59.86,59.86,0,0,1,6.7.07A57.21,57.21,0,0,1,200.22,698.33ZM154.15,715c.4-4.29,1.19-6.9,2.1-7.94,1.56-1.76,3.33-2.65,5-2.54a4.57,4.57,0,0,1,1,.21,3.44,3.44,0,0,1,2.4,2.88c.12,1.81-1.48,3.67-4.39,5.11A34.71,34.71,0,0,1,154.15,715Z"/><g class="cls-10"><path class="cls-4" d="M761,958a79.38,79.38,0,1,1,79.38-79.38A79.47,79.47,0,0,1,761,958Zm0-152.47a73.1,73.1,0,1,0,73.09,73.09A73.18,73.18,0,0,0,761,805.48Z"/><path class="cls-4" d="M735.31,925.17a3.15,3.15,0,0,1-3.15-3.14V835.11a3.14,3.14,0,0,1,1.58-2.73,3.19,3.19,0,0,1,3.14,0l75.28,43.47a3.14,3.14,0,0,1,0,5.44l-75.28,43.46A3.16,3.16,0,0,1,735.31,925.17Zm3.14-84.62v76l65.85-38Z"/></g><g class="cls-10"><path class="cls-4" d="M726.14,305.65c-13.87-3.44-21.79-16.28-18.43-29.87l.12-.5c3.37-13.59,16.37-21.25,30.24-17.82s21.8,16.29,18.44,29.88l-.12.49C753,301.42,740,309.08,726.14,305.65Zm10.42-42.08c-10.39-2.58-20.12,3.12-22.62,13.23l-.13.48c-2.5,10.13,3.45,19.69,13.84,22.26s20.12-3.11,22.63-13.22l.12-.49C752.91,275.71,747,266.14,736.56,263.57Zm4-16.15c-7.65-1.9-12-8.73-10.95-17l12.26-94.58c.68-4.83,2.92-8.73,6.31-11a12.85,12.85,0,0,1,10.44-1.69l24,5.94a12.85,12.85,0,0,1,8.44,6.36c1.93,3.61,2.1,8.11.46,12.66l-33.32,89.42C755.29,245.32,748.21,249.31,740.56,247.42Zm16.55-118.2a6.6,6.6,0,0,0-5.41.79c-1.9,1.28-3.18,3.64-3.6,6.65l-12.25,94.56c-.69,5.19,1.63,9,6.22,10.09s8.41-1.11,10.22-6l33.3-89.39a9.31,9.31,0,0,0-.09-7.53,6.62,6.62,0,0,0-4.42-3.23Z"/></g><g class="cls-10"><path class="cls-4" d="M972.28,233a3.13,3.13,0,0,1-3.14-3.14V180.4a3.15,3.15,0,1,1,6.29,0v49.48A3.14,3.14,0,0,1,972.28,233Z"/><path class="cls-4" d="M997,208.28H947.54a3.14,3.14,0,1,1,0-6.28H997a3.14,3.14,0,0,1,0,6.28Z"/></g><g class="cls-10"><path class="cls-4" d="M1386.3,432.72a17.63,17.63,0,1,1,17.62-17.63A17.65,17.65,0,0,1,1386.3,432.72Zm0-29a11.34,11.34,0,1,0,11.34,11.34A11.36,11.36,0,0,0,1386.3,403.75Z"/></g><path class="cls-11" d="M189.75,194.88a17.63,17.63,0,1,1,17.63-17.63A17.64,17.64,0,0,1,189.75,194.88Zm0-29a11.34,11.34,0,1,0,11.34,11.34A11.36,11.36,0,0,0,189.75,165.91Z"/><g class="cls-10"><path class="cls-4" d="M313.7,1150.57a3.15,3.15,0,0,1-2.22-5.37l21.28-21.28a3.14,3.14,0,1,1,4.44,4.45l-21.28,21.28A3.14,3.14,0,0,1,313.7,1150.57Z"/><path class="cls-4" d="M304.26,1141.13a3.14,3.14,0,0,1-2.22-5.36l21.28-21.28a3.14,3.14,0,0,1,4.44,4.45l-21.28,21.27A3.09,3.09,0,0,1,304.26,1141.13Z"/><path class="cls-4" d="M294.82,1131.7a3.15,3.15,0,0,1-2.22-5.37l21.28-21.28a3.15,3.15,0,0,1,4.45,4.45l-21.28,21.28A3.17,3.17,0,0,1,294.82,1131.7Z"/></g><g class="cls-10"><path class="cls-4" d="M390.58,400.51a2.63,2.63,0,0,1-2.44-1.44l-17.38-34-30.11,1.19A27.33,27.33,0,0,1,312.39,340l-2.77-77.24a27.26,27.26,0,0,1,26.23-28.25l95.59-3.7a27.32,27.32,0,0,1,28.25,26.23l2.77,77.25a27.29,27.29,0,0,1-26.22,28.24l-29.12,1.16L393,398.86a2.65,2.65,0,0,1-2.34,1.65ZM372.26,359.7a2.66,2.66,0,0,1,2.45,1.45l15.5,30.34,12.63-31.35a2.67,2.67,0,0,1,2.36-1.66L436,357.26a22,22,0,0,0,21.14-22.76l-2.77-77.25a22,22,0,0,0-22.68-21.13l-95.67,3.71a22,22,0,0,0-21.13,22.75l2.76,77.25A22,22,0,0,0,340.37,361l31.88-1.26Z"/><path class="cls-4" d="M426.86,339.33a2.5,2.5,0,0,1-1.1-.2,2.64,2.64,0,0,1-1.43-3.45c0-.06,1.73-4.4-.06-8.43-1.17-2.66-3.67-4.71-7.42-6.09-3.13-1.16-6.19-2.07-9.14-3-7.63-2.28-13.66-4.08-15.61-8.66-1-2.41-.73-5.12.91-8.28,1.3-2.53,2.51-4.49,3.58-6.22,3.25-5.27,4.88-7.91,3.59-18.45-1.53-12.47-13.91-12.4-14.44-12.39h0c-.89,0-12.89.67-14,12.89-.93,10.57.8,13.16,4.23,18.31,1.13,1.69,2.4,3.61,3.8,6.08,1.74,3.11,2.13,5.82,1.19,8.26-1.78,4.64-7.74,6.65-15.29,9.2-2.92,1-5.95,2-9,3.27-3.7,1.51-6.12,3.65-7.2,6.35a12,12,0,0,0,.24,8.42,2.66,2.66,0,0,1-1.32,3.5,2.63,2.63,0,0,1-3.5-1.3,17.3,17.3,0,0,1-.37-12.53c1.63-4.11,5-7.26,10.15-9.35,3.24-1.32,6.49-2.42,9.35-3.38,5.73-1.94,11.15-3.76,12-6.08.33-.87,0-2.14-.87-3.76-1.29-2.3-2.51-4.13-3.59-5.74-3.72-5.59-6.19-9.29-5.1-21.71,1.21-13.78,13.08-17.68,19.18-17.72s18.1,3.31,19.79,17c1.52,12.38-.82,16.15-4.34,21.87-1,1.65-2.17,3.52-3.38,5.86-.86,1.66-1.11,2.94-.75,3.79,1,2.29,6.46,3.93,12.25,5.66,2.9.87,6.18,1.84,9.47,3.06,5.17,1.9,8.69,4.93,10.46,9,2.68,6.14.18,12.28.07,12.54A2.63,2.63,0,0,1,426.86,339.33Z"/></g><g class="cls-10"><path class="cls-4" d="M1590.63,405.25a3.82,3.82,0,0,1-2.77-3l-10-53.82L1536,337.76a39.16,39.16,0,0,1-28.1-47.59l27.78-107.26a39.09,39.09,0,0,1,47.59-28.08l132.84,34a39.16,39.16,0,0,1,28.08,47.58l-27.77,107.26a39.13,39.13,0,0,1-47.58,28.09l-40.48-10.32-33.84,42.5a3.82,3.82,0,0,1-3.89,1.32Zm-8.48-63.57a3.82,3.82,0,0,1,2.77,3l8.89,48,30.18-37.9a3.82,3.82,0,0,1,3.91-1.32l42.86,10.93a31.53,31.53,0,0,0,38.35-22.62l27.77-107.27a31.52,31.52,0,0,0-22.52-38.3l-132.94-34a31.49,31.49,0,0,0-38.35,22.62l-27.78,107.26a31.54,31.54,0,0,0,22.53,38.31l44.31,11.3Z"/><image width="585" height="585" transform="translate(1557.37 149.82) rotate(14.37) scale(0.32)" xlink:href="../Communication/Logos%20Cairn/Logo%20simple%20blanc.png"/></g><use transform="translate(483.35 837.01) rotate(75.73) scale(0.06)" xlink:href="#image"/><g class="cls-10"><path class="cls-4" d="M1754.73,1059.94a3.15,3.15,0,0,1-3.14-3.15v-49.48a3.15,3.15,0,0,1,6.29,0v49.48A3.15,3.15,0,0,1,1754.73,1059.94Z"/><path class="cls-4" d="M1779.47,1035.2H1730a3.15,3.15,0,0,1,0-6.29h49.48a3.15,3.15,0,0,1,0,6.29Z"/></g><path class="cls-2" d="M1203.57,808.34h247.77a15.49,15.49,0,0,1,15.49,15.49v129a15.49,15.49,0,0,1-15.49,15.49H1203.57a15.48,15.48,0,0,1-15.48-15.48V823.82a15.48,15.48,0,0,1,15.48-15.48Z" transform="translate(163 1981.66) rotate(-76.99)"/><path class="cls-3" d="M1198.51,803h247.77a15.49,15.49,0,0,1,15.49,15.49v129A15.49,15.49,0,0,1,1446.28,963H1198.51A15.48,15.48,0,0,1,1183,947.5v-129A15.48,15.48,0,0,1,1198.51,803Z" transform="translate(164.31 1972.57) rotate(-76.99)"/><path class="cls-4" d="M1233.77,969l50.31-217.66c.05-.21,130.87,30,130.81,30.23l-50.31,217.67C1364.52,999.49,1233.71,969.3,1233.77,969Z"/><path class="cls-5" d="M1300,1001.91a9,9,0,1,1-6.76-10.83A9,9,0,0,1,1300,1001.91Z"/><rect class="cls-6" x="1320.94" y="772.71" width="23.14" height="134.46" transform="translate(214.08 1949.08) rotate(-76.99)"/><rect class="cls-1" x="1312.98" y="803.03" width="24.86" height="133.98" transform="translate(179.27 1965.47) rotate(-76.99)"/><rect class="cls-7" x="1380.14" y="880.6" width="5.21" height="5.7" transform="translate(210.61 2031.74) rotate(-76.99)"/><rect class="cls-7" x="1371.07" y="878.89" width="5.2" height="5.7" transform="translate(205.24 2021.57) rotate(-76.99)"/><rect class="cls-8" x="1259.63" y="880.32" width="44.23" height="56.48" transform="translate(107.89 1952.78) rotate(-76.99)"/><rect class="cls-9" x="1263.93" y="917.23" width="7.37" height="42.4" transform="translate(67.84 1962.17) rotate(-76.99)"/><rect class="cls-9" x="1267.32" y="923.21" width="3.79" height="49.89" transform="translate(59.6 1971.26) rotate(-76.99)"/><rect class="cls-9" x="1256.07" y="938.73" width="3.83" height="30.66" transform="translate(45.15 1964.89) rotate(-76.99)"/><rect class="cls-9" x="1280.13" y="952.75" width="3.83" height="13.74" transform="translate(58.37 1992.64) rotate(-76.99)"/><rect class="cls-6" x="1321.91" y="895.98" width="44.23" height="56.48" transform="translate(140.89 2025.59) rotate(-76.99)"/><rect class="cls-9" x="1326.21" y="932.89" width="7.37" height="42.4" transform="translate(100.84 2034.98) rotate(-76.99)"/><rect class="cls-9" x="1329.6" y="938.87" width="3.79" height="49.89" transform="translate(92.6 2044.07) rotate(-76.99)"/><rect class="cls-9" x="1318.34" y="954.39" width="3.83" height="30.67" transform="translate(78.14 2037.7) rotate(-76.99)"/><rect class="cls-9" x="1342.4" y="968.41" width="3.83" height="13.74" transform="translate(91.37 2065.45) rotate(-76.99)"/><use transform="translate(1287.34 748.94) rotate(13.01) scale(0.04)" xlink:href="#image-2"/><path class="cls-11" d="M1074.13,622.07c-2.38-7-7.85-12.57-16.26-16.5-5.44-2.55-10.91-4.7-15.74-6.59-9.86-3.88-19.17-7.54-20.62-11.93-.21-.65-.86-2.61,1.9-7,2.42-3.88,4.68-6.92,6.67-9.61,6.79-9.18,11.28-15.24,10.47-36.43-.89-23.25-20.52-30.7-30.79-31.38,0,0-.47,0-1.31,0-4.79,0-28.91,1.31-33.37,27-3.62,20.9,0,27.51,5.53,37.5,1.61,2.93,3.44,6.25,5.34,10.41,2.15,4.71,1.24,6.58.94,7.19-2,4.16-11.73,6.56-22,9.09-3.66.9-7.69,1.89-11.82,3a3.79,3.79,0,0,0-.85-.62l-2-.91a38.51,38.51,0,0,1-3.54-1.72,17.89,17.89,0,0,1,1.63-3c1.78-2.84,3.44-5.08,4.91-7.05,5.15-7,8.55-11.57,7.94-27.6-.69-17.93-15.82-23.67-23.73-24.2s-23.66,3.15-26.72,20.83c-2.75,15.81,0,20.83,4.2,28.41,1.18,2.16,2.53,4.6,3.92,7.64.63,1.4,1.27,3.32.7,4.49-1.28,2.66-8.59,4.46-15.65,6.19-3.74.92-8,2-12.25,3.3-6.83,2.14-11.59,5.85-14.15,11-3.88,7.81-1,15.95-.9,16.3a3.82,3.82,0,0,0,3.34,2.52l52.38,3.5,136.55,9.13h.26a3.83,3.83,0,0,0,3.39-2.07C1072.7,642.58,1077.73,632.69,1074.13,622.07ZM884.34,617c1.61-3.2,4.83-5.57,9.56-7.06,4-1.27,8-2.23,11.78-3.17,10-2.46,17.86-4.39,20.72-10.29,1.5-3.08,1.28-6.78-.63-11-1.51-3.31-2.93-5.89-4.18-8.17-3.76-6.81-5.65-10.24-3.36-23.41,2.6-15,17-14.59,18.68-14.49.65,0,16,1.25,16.58,16.85.51,13.35-1.81,16.5-6.44,22.75-1.55,2.1-3.3,4.46-5.23,7.55-2.24,3.55-3.55,6.52-2.67,9.43.61,2,2.06,3.27,4,4.38-6.05,2.85-10.43,6.9-13,12.12A27.34,27.34,0,0,0,927.73,628l-44.49-3A13.77,13.77,0,0,1,884.34,617Zm182.23,20.29-131-8.76a20.43,20.43,0,0,1,1.38-12.64c2.33-4.69,6.95-8.15,13.74-10.29,5.51-1.72,10.85-3,16-4.31,13.12-3.22,23.5-5.78,27.08-13.17,1.86-3.85,1.58-8.32-.87-13.7-2-4.42-3.92-7.88-5.6-10.94-5.23-9.48-7.85-14.24-4.69-32.49,3.33-19.21,20.61-20.7,25.83-20.7.47,0,.76,0,.79,0,.93.07,22.82,1.92,23.66,24,.71,18.51-2.52,22.88-9,31.58-2.07,2.8-4.42,6-7,10.1-3.13,5-4,9.4-2.68,13.46,2.57,7.8,12.51,11.71,25.09,16.66,5,1.94,10.07,4,15.3,6.4,6.42,3,10.53,7,12.23,12A20.35,20.35,0,0,1,1066.57,637.24Z"/></svg>