<svg id="Calque_1" data-name="Calque 1" xmlns="http://www.w3.org/2000/svg" xmlns:xlink="http://www.w3.org/1999/xlink" viewBox="0 0 1732.33 1146.35"><defs><style>.cls-1{fill:none;}.cls-2{fill:#fff;}.cls-3{clip-path:url(#clip-path);}</style><clipPath id="clip-path" transform="translate(-63.49 118)"><rect class="cls-1" x="1358.09" y="32.82" width="125.65" height="173" transform="translate(79.67 -364.74) rotate(15.04)"/></clipPath><image id="image" width="3508" height="2480" xlink:href="Logo blanc.png"/></defs><title>bg_login</title><path class="cls-2" d="M1582.75,1028.32l-11.24-.66a14.11,14.11,0,0,1-13.25-14.92l3.4-57.32a14.11,14.11,0,0,1,14.91-13.25l11.23.67a14.11,14.11,0,0,1,13.25,14.91l-3.39,57.33a14.11,14.11,0,0,1-14.07,13.27ZM1566,955.68l-3.39,57.32a9.71,9.71,0,0,0,9.13,10.29l11.23.66a9.76,9.76,0,0,0,10.29-9.13l3.39-57.33a9.73,9.73,0,0,0-9.13-10.28l-11.24-.67-.59,0A9.73,9.73,0,0,0,1566,955.68Z" transform="translate(-63.49 118)"/><path class="cls-2" d="M1543.52,1020l-51-3a10.76,10.76,0,0,1-7.88-17.31,12.14,12.14,0,0,1-3.42-19,13.05,13.05,0,0,1-6.84-12.2,12.89,12.89,0,0,1,2.58-7,13,13,0,0,1,7.07-24.3l29.47,1.75,1.35-22.69a13.21,13.21,0,1,1,26.38,1.57l-.81,13.54a9.89,9.89,0,0,0,9.28,9.79,1.49,1.49,0,0,1,.36.05,18.21,18.21,0,0,1,15.69,19l-2.54,42.88a18.36,18.36,0,0,1-18.55,17h0C1544.29,1020.07,1543.91,1020.06,1543.52,1020Zm-7.46-88.76.81-13.68a8.84,8.84,0,0,0-17.64-1.05l-1.47,24.87a2.19,2.19,0,0,1-2.32,2.06l-31.66-1.88a8.59,8.59,0,0,0-2.41,16.95,2.2,2.2,0,0,1,.83,3.9,8.55,8.55,0,0,0-3.44,6.37,8.64,8.64,0,0,0,7.34,9,2.19,2.19,0,0,1,.67,4.12,7.77,7.77,0,0,0,2.51,14.68,2.19,2.19,0,0,1,.79,4.09,6.35,6.35,0,0,0-3.27,5.2,6.38,6.38,0,0,0,6,6.73l51,3c7.93.44,14.63-5.35,15.07-12.85l2.54-42.88a13.87,13.87,0,0,0-12.11-14.39A14.3,14.3,0,0,1,1536.06,931.27Z" transform="translate(-63.49 118)"/><path class="cls-2" d="M1580.35,973.64a8.37,8.37,0,0,1,1-16.71,8.37,8.37,0,0,1-.49,16.72Zm-3.49-8.59a4,4,0,0,0,3.74,4.21h.24a4,4,0,0,0,4-3.75,4,4,0,0,0-3.75-4.22h-.24A4,4,0,0,0,1576.86,965.05Z" transform="translate(-63.49 118)"/><path class="cls-2" d="M1718.19,646.65c-2.38-7-7.85-12.57-16.25-16.5-5.45-2.55-10.92-4.7-15.75-6.59-9.86-3.88-19.17-7.54-20.61-11.93-.22-.65-.87-2.62,1.89-7,2.43-3.87,4.69-6.91,6.68-9.6,6.79-9.18,11.27-15.24,10.46-36.44-.88-23.25-20.52-30.69-30.78-31.38,0,0-.47,0-1.32,0-4.79,0-28.9,1.3-33.36,27-3.63,20.9,0,27.5,5.52,37.5,1.62,2.93,3.45,6.25,5.34,10.41,2.15,4.71,1.24,6.58,1,7.19-2,4.16-11.74,6.55-22,9.08-3.67.91-7.7,1.9-11.83,3.06a3.61,3.61,0,0,0-.85-.63l-2-.9a36.18,36.18,0,0,1-3.55-1.73,17.94,17.94,0,0,1,1.64-3c1.78-2.84,3.44-5.08,4.9-7.06,5.15-7,8.55-11.56,7.94-27.6-.68-17.93-15.82-23.66-23.72-24.19s-23.66,3.14-26.72,20.82c-2.75,15.82,0,20.83,4.19,28.42,1.19,2.15,2.53,4.6,3.92,7.64.64,1.4,1.28,3.32.71,4.49-1.29,2.66-8.6,4.45-15.66,6.19-3.74.91-8,2-12.25,3.29-6.83,2.15-11.59,5.86-14.15,11-3.88,7.81-1,15.95-.9,16.29A3.84,3.84,0,0,0,1524,657l52.37,3.5,136.55,9.12h.26a3.85,3.85,0,0,0,3.4-2.06C1716.76,667.16,1721.8,657.27,1718.19,646.65Zm-189.79-5.12c1.61-3.21,4.83-5.58,9.56-7.06,4-1.27,8-2.24,11.79-3.17,10-2.46,17.86-4.39,20.71-10.29,1.5-3.08,1.29-6.78-.62-11-1.51-3.31-2.93-5.89-4.19-8.17-3.76-6.82-5.64-10.24-3.35-23.41,2.59-15,17-14.6,18.67-14.49.65,0,16,1.25,16.59,16.84.51,13.36-1.82,16.51-6.45,22.76-1.54,2.09-3.3,4.45-5.23,7.54-2.24,3.56-3.54,6.52-2.67,9.44.61,2,2.07,3.27,4,4.38-6,2.85-10.43,6.9-13,12.12a27.25,27.25,0,0,0-2.36,15.5l-44.48-3A13.66,13.66,0,0,1,1528.4,641.53Zm182.24,20.29-131-8.76a20.5,20.5,0,0,1,1.38-12.64c2.33-4.69,7-8.16,13.75-10.29,5.5-1.73,10.85-3,16-4.31,13.13-3.23,23.5-5.78,27.08-13.17,1.87-3.85,1.58-8.33-.86-13.7-2-4.43-3.92-7.88-5.61-10.94-5.23-9.48-7.85-14.24-4.68-32.5,3.32-19.2,20.61-20.69,25.82-20.69.48,0,.77,0,.8,0,.93.06,22.81,1.92,23.66,24,.7,18.51-2.53,22.88-9,31.58-2.08,2.8-4.42,6-7,10.09-3.14,5-4,9.41-2.68,13.47,2.56,7.8,12.5,11.71,25.09,16.66,4.95,1.94,10.07,4,15.29,6.4,6.42,3,10.54,7,12.23,12A20.46,20.46,0,0,1,1710.64,661.82Z" transform="translate(-63.49 118)"/><path class="cls-2" d="M1108.26,58.19a31.76,31.76,0,0,0-21.94-10.86l-164-11a32,32,0,0,0-34,29.78l-3.7,55.43a32,32,0,0,0,29.78,34l61.32,4.1,15.15,39.23a4.33,4.33,0,0,0,3.79,2.76h.26a4.35,4.35,0,0,0,3.82-2.3l19.51-36.85,60.21,4c.72,0,1.44.07,2.15.07h0a32.06,32.06,0,0,0,31.89-29.85l3.7-55.43A31.79,31.79,0,0,0,1108.26,58.19Zm-4.51,78a23.36,23.36,0,0,1-24.82,21.71l-63-4.21a4.37,4.37,0,0,0-4.12,2.29L995.43,187,982.71,154a4.33,4.33,0,0,0-3.75-2.77L914.88,147a23.37,23.37,0,0,1-21.72-24.83l3.71-55.43A23.36,23.36,0,0,1,920.11,45c.52,0,1,0,1.58,0l164,11a23.3,23.3,0,0,1,21.71,24.82Z" transform="translate(-63.49 118)"/><path class="cls-2" d="M967.77,89.65a13,13,0,0,0-13.68,12,12.85,12.85,0,0,0,12,13.7q.44,0,.87,0a12.87,12.87,0,0,0,.84-25.71Zm-.84,17h-.29a4.19,4.19,0,0,1-3.91-4.47,4.27,4.27,0,0,1,4.45-3.91h0a4.2,4.2,0,0,1-.27,8.39Z" transform="translate(-63.49 118)"/><path class="cls-2" d="M1001,91.86a13,13,0,0,0-13.69,12,12.87,12.87,0,0,0,12,13.7q.43,0,.87,0a12.87,12.87,0,0,0,.85-25.72Zm-.85,17h-.29a4.21,4.21,0,0,1-3.9-4.48,4.26,4.26,0,0,1,4.44-3.91h0a4.2,4.2,0,0,1-.27,8.4Z" transform="translate(-63.49 118)"/><path class="cls-2" d="M1034.12,94.08a12.87,12.87,0,0,0-1.72,25.68c.29,0,.58,0,.87,0a12.87,12.87,0,0,0,.85-25.72Zm-.85,17-.29,0a4.19,4.19,0,0,1-3.91-4.47,4.26,4.26,0,0,1,4.45-3.91h0a4.2,4.2,0,0,1-.27,8.4Z" transform="translate(-63.49 118)"/><path class="cls-2" d="M1729.07,942.47a2.18,2.18,0,0,1-2-1.26l-12.22-26.29H1682A20.94,20.94,0,0,1,1661.08,894V872.22a2.17,2.17,0,0,1,4.34,0V894A16.59,16.59,0,0,0,1682,910.57h34.26a2.19,2.19,0,0,1,2,1.26l10.8,23.23,10.37-23.2a2.17,2.17,0,0,1,2-1.29h33.53A16.59,16.59,0,0,0,1791.49,894V856.34a16.59,16.59,0,0,0-16.58-16.57h-14.82a2.17,2.17,0,1,1,0-4.34h14.82a20.94,20.94,0,0,1,20.92,20.91V894a20.94,20.94,0,0,1-20.92,20.92h-32.12l-11.74,26.26a2.17,2.17,0,0,1-2,1.29Z" transform="translate(-63.49 118)"/><path class="cls-2" d="M1695.5,901.94a2.19,2.19,0,0,1-2-1.25l-12.22-26.3h-32.88a20.94,20.94,0,0,1-20.92-20.92V815.81a20.94,20.94,0,0,1,20.92-20.91h92.91a20.94,20.94,0,0,1,20.92,20.91v37.66a20.94,20.94,0,0,1-20.92,20.92h-32.12l-11.74,26.27a2.16,2.16,0,0,1-2,1.28Zm-47.07-102.7a16.59,16.59,0,0,0-16.58,16.57v37.66a16.59,16.59,0,0,0,16.58,16.58h34.26a2.17,2.17,0,0,1,2,1.26l10.8,23.23,10.37-23.21a2.16,2.16,0,0,1,2-1.28h33.53a16.6,16.6,0,0,0,16.58-16.58V815.81a16.59,16.59,0,0,0-16.58-16.57Z" transform="translate(-63.49 118)"/><path class="cls-2" d="M762.29,254.84a3.08,3.08,0,0,1-1.61-.45c-1.55-.93-38-23-44-49.94-3-13.26.4-21,3.75-25.21a19,19,0,0,1,15.16-7c9.71,0,19.45,5.91,26.73,16,7.28-10.11,17-16,26.73-16a19,19,0,0,1,15.16,7c4.73,5.92,6.07,14.87,3.75,25.21-6,26.92-42.47,49-44,49.94A3.15,3.15,0,0,1,762.29,254.84ZM735.56,178.5a12.65,12.65,0,0,0-10.25,4.67c-3.52,4.39-4.42,11.46-2.53,19.91,4.76,21.28,32.49,40.36,39.51,44.9,7-4.54,34.75-23.62,39.51-44.9,1.89-8.45,1-15.52-2.53-19.91A12.63,12.63,0,0,0,789,178.5c-6.74,0-16.59,4.48-24,17.07a3.14,3.14,0,0,1-5.42,0C752.15,183,742.3,178.5,735.56,178.5Z" transform="translate(-63.49 118)"/><path class="cls-2" d="M1749.34,152.93a64.53,64.53,0,0,0-5.91-4.34,62.64,62.64,0,0,0-96,61.79,1.87,1.87,0,0,0,0,.35l.09.57a42.42,42.42,0,0,1-4.85,26.44,10,10,0,0,0-13,11.89,10,10,0,0,0-7.6,13.47,9.89,9.89,0,0,0-5.65,4.13,10,10,0,0,0,.43,11.47,10,10,0,0,0-2.13,16.75,9.07,9.07,0,0,0,.94.69h0a29.7,29.7,0,0,0,44.51,28.93l0,0,.53.34a10,10,0,0,0,15.44-8.2,9.94,9.94,0,0,0,10.65-4.28,10,10,0,0,0,1.47-6.85,9.68,9.68,0,0,0,1.6-.18,10,10,0,0,0,7.6-12.25c.12,0,.25,0,.37,0a10,10,0,0,0,5.2-16.65,42.47,42.47,0,0,1,22.17-15.19l.54-.15.36-.11a62.65,62.65,0,0,0,23.16-108.56Zm-53.78,64.57a67.94,67.94,0,0,0,6.1,3.51c-9.18,12.79-18.18,31.8-22,40.32l-9.87-6.4C1677.64,245.66,1689.56,230.59,1695.56,217.5Zm-2.55-8.6c-3-2.53-5-5-5.58-6.88-.26-1,0-1.28.37-1.59,1.29-1.1,3.39-1.57,4.66-.52l.18.16C1693.83,201.27,1694.34,204.09,1693,208.9Zm-61,110.92a24.4,24.4,0,0,1-11.08-20.3L1655,321.65A24.15,24.15,0,0,1,1632,319.82Zm38.14-.32a4.64,4.64,0,0,1-6.4,1.36l-45.09-29.25a4.62,4.62,0,0,1,5-7.76l5.95,3.86,39.14,25.39a5,5,0,0,1,.44.32A4.63,4.63,0,0,1,1670.12,319.5Zm12.22-9.53a4.62,4.62,0,0,1-6.4,1.36l-43.39-28.15-6-3.86h0l-4.25-2.76a4.62,4.62,0,1,1,5-7.75l53.6,34.76.44.32A4.63,4.63,0,0,1,1682.34,310Zm9.39-11.37a4.62,4.62,0,0,1-2.92,2,4.57,4.57,0,0,1-3.47-.64l-56.44-36.6a4.63,4.63,0,0,1,5-7.77l56.43,36.61a3.54,3.54,0,0,1,.44.32A4.63,4.63,0,0,1,1691.73,298.6Zm8-12.29a4.64,4.64,0,0,1-6.4,1.36l-56.43-36.6a4.6,4.6,0,0,1-1.36-6.4,4.52,4.52,0,0,1,2.91-2,4.57,4.57,0,0,1,3.49.64l.33.21h0L1698,279.68h0l.34.22.44.32A4.63,4.63,0,0,1,1699.7,286.31Zm57.66-54a57.12,57.12,0,0,1-32.86,24l-.2.06-.34.1-.21.06a47.82,47.82,0,0,0-25,17.16l-14.51-9.41c8.8-19.72,16.61-33,22.5-41a43.8,43.8,0,0,0,8.94,2.66c7.75,1.27,11-2.41,12-4.05a8.79,8.79,0,0,0-.44-9.73c-2.47-3.47-6.89-4.88-11.84-3.76-3.18.71-6.75,3.81-10.4,8.2a63.79,63.79,0,0,1-7.36-4.28c2.28-6.7,2.43-12.48-1.15-16.1s-8.92-2.72-12.18.06a6.58,6.58,0,0,0-2.07,7.14c1,3.47,4.34,7.32,8.84,10.84-3.6,8.36-11.33,20.64-25.91,37.65l-17.77-11.53a48,48,0,0,0,5.46-30,1.57,1.57,0,0,1,0-.23c0-.09,0-.17,0-.23a1.36,1.36,0,0,0,0-.2,57.24,57.24,0,0,1,87.74-56.69,60.46,60.46,0,0,1,5.4,4A57.2,57.2,0,0,1,1757.36,232.31Zm-47.13-13.39c2.83-3.24,5-4.91,6.35-5.21,2.29-.52,4.24-.21,5.52.85a4.5,4.5,0,0,1,.73.78,3.44,3.44,0,0,1,.26,3.73c-1,1.54-3.35,2.12-6.55,1.59A34.83,34.83,0,0,1,1710.23,218.92Z" transform="translate(-63.49 118)"/><path class="cls-2" d="M316.58,1021.05A79.39,79.39,0,1,1,396,941.67,79.46,79.46,0,0,1,316.58,1021.05Zm0-152.48a73.1,73.1,0,1,0,73.1,73.1A73.18,73.18,0,0,0,316.58,868.57Z" transform="translate(-63.49 118)"/><path class="cls-2" d="M290.86,988.27a3.27,3.27,0,0,1-1.57-.42,3.16,3.16,0,0,1-1.57-2.73V898.2a3.14,3.14,0,0,1,4.71-2.72L367.71,939a3.13,3.13,0,0,1,0,5.44l-75.28,43.46A3.24,3.24,0,0,1,290.86,988.27ZM294,903.65v76l65.84-38Z" transform="translate(-63.49 118)"/><path class="cls-2" d="M512.82,239.85c-13.9,3.29-26.83-4.5-30.05-18.13l-.12-.5c-3.22-13.62,4.84-26.38,18.74-29.68s26.83,4.51,30.06,18.14l.12.49C534.79,223.8,526.73,236.56,512.82,239.85Zm-10-42.19c-10.42,2.47-16.47,12-14.07,22.12l.12.49c2.4,10.14,12.06,15.93,22.48,13.46s16.48-12,14.08-22.11l-.12-.49C522.93,201,513.26,195.2,502.84,197.66ZM499,181.47c-7.67,1.82-14.71-2.25-17.52-10.12L449.13,81.63c-1.61-4.6-1.4-9.09.57-12.68a12.86,12.86,0,0,1,8.51-6.28l24-5.69a12.89,12.89,0,0,1,10.42,1.8c3.37,2.33,5.57,6.25,6.19,11l11.28,94.75C511.15,172.87,506.68,179.66,499,181.47ZM459.66,68.79A6.61,6.61,0,0,0,455.21,72c-1.1,2-1.16,4.69-.16,7.56l32.36,89.7c1.76,4.92,5.55,7.21,10.15,6.12s7-4.83,6.34-10L492.62,70.61A9.34,9.34,0,0,0,489.1,64a6.67,6.67,0,0,0-5.41-.85Z" transform="translate(-63.49 118)"/><path class="cls-2" d="M740.28,88.21a3.14,3.14,0,0,1-3.14-3.14V35.59a3.15,3.15,0,1,1,6.29,0V85.07A3.15,3.15,0,0,1,740.28,88.21Z" transform="translate(-63.49 118)"/><path class="cls-2" d="M765,63.47H715.54a3.14,3.14,0,1,1,0-6.28H765a3.14,3.14,0,0,1,0,6.28Z" transform="translate(-63.49 118)"/><path class="cls-2" d="M1324.82,341.44a17.63,17.63,0,1,1,17.62-17.62A17.65,17.65,0,0,1,1324.82,341.44Zm0-29a11.34,11.34,0,1,0,11.34,11.34A11.35,11.35,0,0,0,1324.82,312.48Z" transform="translate(-63.49 118)"/><path class="cls-2" d="M123.57,1011a17.63,17.63,0,1,1,17.63-17.63A17.65,17.65,0,0,1,123.57,1011Zm0-29a11.34,11.34,0,1,0,11.34,11.34A11.35,11.35,0,0,0,123.57,982Z" transform="translate(-63.49 118)"/><path class="cls-2" d="M196.76,268.42a3.16,3.16,0,0,1-2.85-1.81l-19.25-41-35.78.2a32.44,32.44,0,0,1-32.47-32.25l-.19-91.76A32.37,32.37,0,0,1,138.48,69.3L252,68.73A32.44,32.44,0,0,1,284.5,101l.19,91.76a32.39,32.39,0,0,1-32.24,32.46l-34.6.2-18.21,41.14a3.17,3.17,0,0,1-2.85,1.87Zm-20.1-49.15a3.13,3.13,0,0,1,2.84,1.81l17.18,36.62L212.93,221a3.15,3.15,0,0,1,2.85-1.87l36.64-.22a26.11,26.11,0,0,0,26-26.15l-.2-91.77a26.12,26.12,0,0,0-26.06-26l-113.65.57a26.07,26.07,0,0,0-26,26.15l.19,91.76a26.11,26.11,0,0,0,26.07,26l37.87-.21Z" transform="translate(-63.49 118)"/><path class="cls-2" d="M242.25,197.29a3.14,3.14,0,0,1-2.86-4.44c0-.07,2.23-5.15.28-10-1.29-3.21-4.17-5.74-8.56-7.53-3.67-1.49-7.26-2.7-10.73-3.87-9-3-16-5.39-18.18-10.9-1.11-2.9-.65-6.1,1.41-9.8,1.65-2.94,3.17-5.22,4.5-7.23,4.07-6.12,6.11-9.19,5-21.74-1.32-14.86-16-15.27-16.64-15.28h0c-1.06,0-15.32.27-17.08,14.73-1.53,12.51.42,15.65,4.29,21.9,1.27,2.05,2.7,4.37,4.25,7.36,1.95,3.76,2.31,7,1.09,9.85-2.3,5.43-9.45,7.58-18.51,10.3-3.51,1.05-7.13,2.14-10.85,3.51-4.45,1.65-7.41,4.09-8.81,7.25-2.11,4.8-.07,10,0,10a3.15,3.15,0,0,1-5.81,2.41c-.13-.31-3.11-7.59.06-14.88,2.1-4.82,6.27-8.41,12.41-10.69,3.91-1.44,7.8-2.61,11.23-3.64,6.88-2.06,13.38-4,14.53-6.73.44-1,.14-2.53-.88-4.49-1.44-2.78-2.81-5-4-6.95-4.2-6.79-7-11.27-5.18-26,2-16.3,16.23-20.45,23.46-20.26s21.34,4.66,22.79,21c1.31,14.75-1.61,19.14-6,25.79-1.28,1.91-2.72,4.08-4.25,6.81-1.08,1.94-1.43,3.44-1,4.47,1.06,2.75,7.5,4.91,14.31,7.2,3.39,1.15,7.25,2.44,11.1,4,6.06,2.47,10.12,6.19,12.05,11.08,2.93,7.39-.28,14.57-.41,14.87A3.15,3.15,0,0,1,242.25,197.29Z" transform="translate(-63.49 118)"/><path class="cls-2" d="M1392.39,266.43a3.82,3.82,0,0,1-2.77-3l-10-53.82-41.86-10.68a39.16,39.16,0,0,1-28.1-47.59l27.78-107.26A39.09,39.09,0,0,1,1385.07,16l132.84,34A39.16,39.16,0,0,1,1546,97.59l-27.77,107.26a39.13,39.13,0,0,1-47.58,28.09l-40.48-10.32-33.84,42.5a3.82,3.82,0,0,1-3.89,1.32Zm-8.48-63.57a3.82,3.82,0,0,1,2.77,3l8.89,48,30.18-37.9a3.82,3.82,0,0,1,3.91-1.32l42.86,10.93A31.51,31.51,0,0,0,1510.86,203l27.78-107.27a31.52,31.52,0,0,0-22.52-38.3l-132.94-34A31.49,31.49,0,0,0,1344.83,46l-27.78,107.26a31.54,31.54,0,0,0,22.53,38.31l44.31,11.3Z" transform="translate(-63.49 118)"/><g class="cls-3"><use transform="translate(1192.05) rotate(15.04) scale(0.15)" xlink:href="#image"/></g><use transform="translate(74 530.75) rotate(-14.45) scale(0.07)" xlink:href="#image"/><path class="cls-2" d="M323.28,492.11a39.88,39.88,0,0,0-30.4-4.21l-199.42,52a40.16,40.16,0,0,0-28.67,48.91l17.58,67.38a40.14,40.14,0,0,0,48.92,28.67l74.54-19.45,33.58,40.63a5.44,5.44,0,0,0,5.6,1.79,2.8,2.8,0,0,1,.31-.09,5.46,5.46,0,0,0,3.63-4.26L257.54,652l73.18-19.1c.87-.23,1.73-.49,2.58-.77h0a40.19,40.19,0,0,0,26.08-48.15l-17.59-67.37A39.83,39.83,0,0,0,323.28,492.11Zm25.58,94.58A29.26,29.26,0,0,1,328,622.34l-76.59,20a5.48,5.48,0,0,0-4,4.36L240.19,690,212,655.86a5.46,5.46,0,0,0-5.57-1.8l-77.89,20.33a29.28,29.28,0,0,1-35.67-20.91L75.3,586.11a29.3,29.3,0,0,1,19-35.09c.62-.21,1.25-.4,1.9-.56l199.42-52a29.21,29.21,0,0,1,35.65,20.9Z" transform="translate(-63.49 118)"/><path class="cls-2" d="M236.82,376.44a17.63,17.63,0,1,1,17.62-17.62A17.65,17.65,0,0,1,236.82,376.44Zm0-29a11.34,11.34,0,1,0,11.34,11.34A11.35,11.35,0,0,0,236.82,347.48Z" transform="translate(-63.49 118)"/></svg>